<?xml version="1.0" encoding="UTF-8" standalone="no"?>
<svg
   xmlns:dc="http://purl.org/dc/elements/1.1/"
   xmlns:cc="http://creativecommons.org/ns#"
   xmlns:rdf="http://www.w3.org/1999/02/22-rdf-syntax-ns#"
   xmlns:svg="http://www.w3.org/2000/svg"
   xmlns="http://www.w3.org/2000/svg"
   xmlns:sodipodi="http://sodipodi.sourceforge.net/DTD/sodipodi-0.dtd"
   xmlns:inkscape="http://www.inkscape.org/namespaces/inkscape"
   version="1.1"
   x="0px"
   y="0px"
   viewBox="0 0 100 100"
   enable-background="new 0 0 100 100"
   xml:space="preserve"
   id="svg8"
   sodipodi:docname="noun_892512_cc.svg"
   width="100"
   height="100"
   inkscape:version="0.92.1 r"><metadata
     id="metadata14"><rdf:RDF><cc:Work
         rdf:about=""><dc:format>image/svg+xml</dc:format><dc:type
           rdf:resource="http://purl.org/dc/dcmitype/StillImage" /><dc:title></dc:title></cc:Work></rdf:RDF></metadata><defs
     id="defs12" /><sodipodi:namedview
     pagecolor="#ffffff"
     bordercolor="#666666"
     borderopacity="1"
     objecttolerance="10"
     gridtolerance="10"
     guidetolerance="10"
     inkscape:pageopacity="0"
     inkscape:pageshadow="2"
     inkscape:window-width="640"
     inkscape:window-height="480"
     id="namedview10"
     showgrid="false"
     inkscape:pagecheckerboard="true"
     fit-margin-top="0"
     fit-margin-left="0"
     fit-margin-right="0"
     fit-margin-bottom="0"
     inkscape:zoom="2.8828308"
     inkscape:cx="16.993642"
     inkscape:cy="12.7725"
     inkscape:current-layer="svg8" /><path
     inkscape:connector-curvature="0"
     d="M 36,28 H 64 V 0 H 36 Z M 0,28 H 28 V 0 H 0 Z M 72,0 v 28 h 28 V 0 Z M 36,64 H 64 V 36 H 36 Z M 0,64 H 28 V 36 H 0 Z m 72,0 h 28 V 36 H 72 Z M 36,100 H 64 V 72 H 36 Z M 0,100 H 28 V 72 H 0 Z m 72,0 h 28 V 72 H 72 Z"
     id="path2"
     style="fill:#7aa3ff;fill-opacity:1;stroke:none;stroke-opacity:1" /><path
     style="fill:#7aa3ff;fill-opacity:1;stroke:none;stroke-opacity:1"
     id="path8435"
     d="M 36,28 H 64 V 0 H 36 Z M 0,28 H 28 V 0 H 0 Z M 72,0 v 28 h 28 V 0 Z M 36,64 H 64 V 36 H 36 Z M 0,64 H 28 V 36 H 0 Z m 72,0 h 28 V 36 H 72 Z M 36,100 H 64 V 72 H 36 Z M 0,100 H 28 V 72 H 0 Z m 72,0 h 28 V 72 H 72 Z"
     inkscape:connector-curvature="0" /></svg>